<?xml version="1.0" encoding="UTF-8" standalone="no"?>
<!DOCTYPE svg PUBLIC "-//W3C//DTD SVG 1.1//EN"
 "http://www.w3.org/Graphics/SVG/1.1/DTD/svg11.dtd">
<!-- Generated by graphviz version 2.40.1 (0)
 -->
<!-- Title: %3 Pages: 1 -->
<svg width="131pt" height="792pt"
 viewBox="0.00 0.00 130.50 792.00" xmlns="http://www.w3.org/2000/svg" xmlns:xlink="http://www.w3.org/1999/xlink">
<g id="graph0" class="graph" transform="scale(1 1) rotate(0) translate(4 788)">
<title>%3</title>
<polygon fill="#ffffff" stroke="transparent" points="-4,4 -4,-788 126.5,-788 126.5,4 -4,4"/>
<!-- (below main) -->
<g id="node1" class="node">
<title>(below main)</title>
<polygon fill="#ff0000" stroke="#ff0000" points="92.5,-681 20.5,-681 20.5,-618 92.5,-618 92.5,-681"/>
<text text-anchor="middle" x="56.5" y="-669" font-family="Arial" font-size="10.00" fill="#ffffff">profile</text>
<text text-anchor="middle" x="56.5" y="-658" font-family="Arial" font-size="10.00" fill="#ffffff">(below main)</text>
<text text-anchor="middle" x="56.5" y="-647" font-family="Arial" font-size="10.00" fill="#ffffff">99.97%</text>
<text text-anchor="middle" x="56.5" y="-636" font-family="Arial" font-size="10.00" fill="#ffffff">(0.00%)</text>
<text text-anchor="middle" x="56.5" y="-625" font-family="Arial" font-size="10.00" fill="#ffffff">2×</text>
</g>
<!-- (below main)&#45;&gt;(below main) -->
<g id="edge1" class="edge">
<title>(below main)&#45;&gt;(below main)</title>
<path fill="none" stroke="#ff0000" stroke-width="4" d="M92.6931,-657.9595C97.9551,-656.6167 101.5,-653.7969 101.5,-649.5 101.5,-648.5601 101.3304,-647.6908 101.0102,-646.8922"/>
<polygon fill="#ff0000" stroke="#ff0000" stroke-width="4" points="102.8857,-643.9322 92.6931,-641.0405 98.8577,-649.6573 102.8857,-643.9322"/>
<text text-anchor="middle" x="107.5" y="-647" font-family="Arial" font-size="10.00" fill="#ff0000">1×</text>
</g>
<!-- main -->
<g id="node2" class="node">
<title>main</title>
<polygon fill="#ff0000" stroke="#ff0000" points="81.5,-578 31.5,-578 31.5,-515 81.5,-515 81.5,-578"/>
<text text-anchor="middle" x="56.5" y="-566" font-family="Arial" font-size="10.00" fill="#ffffff">profile</text>
<text text-anchor="middle" x="56.5" y="-555" font-family="Arial" font-size="10.00" fill="#ffffff">main</text>
<text text-anchor="middle" x="56.5" y="-544" font-family="Arial" font-size="10.00" fill="#ffffff">99.97%</text>
<text text-anchor="middle" x="56.5" y="-533" font-family="Arial" font-size="10.00" fill="#ffffff">(0.00%)</text>
<text text-anchor="middle" x="56.5" y="-522" font-family="Arial" font-size="10.00" fill="#ffffff">1×</text>
</g>
<!-- (below main)&#45;&gt;main -->
<g id="edge2" class="edge">
<title>(below main)&#45;&gt;main</title>
<path fill="none" stroke="#ff0000" stroke-width="4" d="M56.5,-617.7562C56.5,-608.5536 56.5,-598.3591 56.5,-588.6267"/>
<polygon fill="#ff0000" stroke="#ff0000" stroke-width="4" points="60.0001,-588.3163 56.5,-578.3163 53.0001,-588.3164 60.0001,-588.3163"/>
<text text-anchor="middle" x="73.5" y="-601" font-family="Arial" font-size="10.00" fill="#ff0000">99.97%</text>
<text text-anchor="middle" x="73.5" y="-590" font-family="Arial" font-size="10.00" fill="#ff0000">1×</text>
</g>
<!-- mainFunction() -->
<g id="node8" class="node">
<title>mainFunction()</title>
<polygon fill="#ff0000" stroke="#ff0000" points="97,-475 16,-475 16,-412 97,-412 97,-475"/>
<text text-anchor="middle" x="56.5" y="-463" font-family="Arial" font-size="10.00" fill="#ffffff">profile</text>
<text text-anchor="middle" x="56.5" y="-452" font-family="Arial" font-size="10.00" fill="#ffffff">mainFunction()</text>
<text text-anchor="middle" x="56.5" y="-441" font-family="Arial" font-size="10.00" fill="#ffffff">99.97%</text>
<text text-anchor="middle" x="56.5" y="-430" font-family="Arial" font-size="10.00" fill="#ffffff">(0.00%)</text>
<text text-anchor="middle" x="56.5" y="-419" font-family="Arial" font-size="10.00" fill="#ffffff">1×</text>
</g>
<!-- main&#45;&gt;mainFunction() -->
<g id="edge6" class="edge">
<title>main&#45;&gt;mainFunction()</title>
<path fill="none" stroke="#ff0000" stroke-width="4" d="M56.5,-514.7562C56.5,-505.5536 56.5,-495.3591 56.5,-485.6267"/>
<polygon fill="#ff0000" stroke="#ff0000" stroke-width="4" points="60.0001,-485.3163 56.5,-475.3163 53.0001,-485.3164 60.0001,-485.3163"/>
<text text-anchor="middle" x="73.5" y="-498" font-family="Arial" font-size="10.00" fill="#ff0000">99.97%</text>
<text text-anchor="middle" x="73.5" y="-487" font-family="Arial" font-size="10.00" fill="#ff0000">1×</text>
</g>
<!-- 0x000000000001dcb0 -->
<g id="node3" class="node">
<title>0x000000000001dcb0</title>
<polygon fill="#ff0000" stroke="#ff0000" points="112,-784 1,-784 1,-721 112,-721 112,-784"/>
<text text-anchor="middle" x="56.5" y="-772" font-family="Arial" font-size="10.00" fill="#ffffff">ld&#45;2.28.so</text>
<text text-anchor="middle" x="56.5" y="-761" font-family="Arial" font-size="10.00" fill="#ffffff">0x000000000001dcb0</text>
<text text-anchor="middle" x="56.5" y="-750" font-family="Arial" font-size="10.00" fill="#ffffff">100.00%</text>
<text text-anchor="middle" x="56.5" y="-739" font-family="Arial" font-size="10.00" fill="#ffffff">(0.00%)</text>
<text text-anchor="middle" x="56.5" y="-728" font-family="Arial" font-size="10.00" fill="#ffffff">0×</text>
</g>
<!-- 0x000000000001dcb0&#45;&gt;(below main) -->
<g id="edge3" class="edge">
<title>0x000000000001dcb0&#45;&gt;(below main)</title>
<path fill="none" stroke="#ff0000" stroke-width="4" d="M56.5,-720.7562C56.5,-711.5536 56.5,-701.3591 56.5,-691.6267"/>
<polygon fill="#ff0000" stroke="#ff0000" stroke-width="4" points="60.0001,-691.3163 56.5,-681.3163 53.0001,-691.3164 60.0001,-691.3163"/>
<text text-anchor="middle" x="73.5" y="-704" font-family="Arial" font-size="10.00" fill="#ff0000">99.97%</text>
<text text-anchor="middle" x="73.5" y="-693" font-family="Arial" font-size="10.00" fill="#ff0000">1×</text>
</g>
<!-- __sqrt_finite -->
<g id="node4" class="node">
<title>__sqrt_finite</title>
<polygon fill="#0c658a" stroke="#0c658a" points="91.5,-63 21.5,-63 21.5,0 91.5,0 91.5,-63"/>
<text text-anchor="middle" x="56.5" y="-51" font-family="Arial" font-size="10.00" fill="#ffffff">libm&#45;2.28.so</text>
<text text-anchor="middle" x="56.5" y="-40" font-family="Arial" font-size="10.00" fill="#ffffff">__sqrt_finite</text>
<text text-anchor="middle" x="56.5" y="-29" font-family="Arial" font-size="10.00" fill="#ffffff">17.64%</text>
<text text-anchor="middle" x="56.5" y="-18" font-family="Arial" font-size="10.00" fill="#ffffff">(17.64%)</text>
<text text-anchor="middle" x="56.5" y="-7" font-family="Arial" font-size="10.00" fill="#ffffff">500000000×</text>
</g>
<!-- heavyCalculation() -->
<g id="node5" class="node">
<title>heavyCalculation()</title>
<polygon fill="#ff0000" stroke="#ff0000" points="105.5,-269 7.5,-269 7.5,-206 105.5,-206 105.5,-269"/>
<text text-anchor="middle" x="56.5" y="-257" font-family="Arial" font-size="10.00" fill="#ffffff">profile</text>
<text text-anchor="middle" x="56.5" y="-246" font-family="Arial" font-size="10.00" fill="#ffffff">heavyCalculation()</text>
<text text-anchor="middle" x="56.5" y="-235" font-family="Arial" font-size="10.00" fill="#ffffff">99.97%</text>
<text text-anchor="middle" x="56.5" y="-224" font-family="Arial" font-size="10.00" fill="#ffffff">(52.93%)</text>
<text text-anchor="middle" x="56.5" y="-213" font-family="Arial" font-size="10.00" fill="#ffffff">5000×</text>
</g>
<!-- sqrt -->
<g id="node6" class="node">
<title>sqrt</title>
<polygon fill="#0ab21e" stroke="#0ab21e" points="91.5,-166 21.5,-166 21.5,-103 91.5,-103 91.5,-166"/>
<text text-anchor="middle" x="56.5" y="-154" font-family="Arial" font-size="10.00" fill="#ffffff">libm&#45;2.28.so</text>
<text text-anchor="middle" x="56.5" y="-143" font-family="Arial" font-size="10.00" fill="#ffffff">sqrt</text>
<text text-anchor="middle" x="56.5" y="-132" font-family="Arial" font-size="10.00" fill="#ffffff">47.05%</text>
<text text-anchor="middle" x="56.5" y="-121" font-family="Arial" font-size="10.00" fill="#ffffff">(29.40%)</text>
<text text-anchor="middle" x="56.5" y="-110" font-family="Arial" font-size="10.00" fill="#ffffff">500000000×</text>
</g>
<!-- heavyCalculation()&#45;&gt;sqrt -->
<g id="edge4" class="edge">
<title>heavyCalculation()&#45;&gt;sqrt</title>
<path fill="none" stroke="#0ab21e" stroke-width="1.88" d="M56.5,-205.7562C56.5,-195.4767 56.5,-183.9595 56.5,-173.2314"/>
<polygon fill="#0ab21e" stroke="#0ab21e" stroke-width="1.88" points="58.9151,-173.2163 56.5,-166.3163 54.0851,-173.2164 58.9151,-173.2163"/>
<text text-anchor="middle" x="83.5" y="-189" font-family="Arial" font-size="10.00" fill="#0ab21e">47.05%</text>
<text text-anchor="middle" x="83.5" y="-178" font-family="Arial" font-size="10.00" fill="#0ab21e">500000000×</text>
</g>
<!-- sqrt&#45;&gt;__sqrt_finite -->
<g id="edge8" class="edge">
<title>sqrt&#45;&gt;__sqrt_finite</title>
<path fill="none" stroke="#0c658a" stroke-width=".71" d="M56.5,-102.7562C56.5,-91.6935 56.5,-79.1974 56.5,-67.7939"/>
<polygon fill="#0c658a" stroke="#0c658a" stroke-width=".71" points="57.9701,-67.5163 56.5,-63.3163 55.0301,-67.5164 57.9701,-67.5163"/>
<text text-anchor="middle" x="83.5" y="-86" font-family="Arial" font-size="10.00" fill="#0c658a">17.64%</text>
<text text-anchor="middle" x="83.5" y="-75" font-family="Arial" font-size="10.00" fill="#0c658a">500000000×</text>
</g>
<!-- intermediateFunction() -->
<g id="node7" class="node">
<title>intermediateFunction()</title>
<polygon fill="#ff0000" stroke="#ff0000" points="113,-372 0,-372 0,-309 113,-309 113,-372"/>
<text text-anchor="middle" x="56.5" y="-360" font-family="Arial" font-size="10.00" fill="#ffffff">profile</text>
<text text-anchor="middle" x="56.5" y="-349" font-family="Arial" font-size="10.00" fill="#ffffff">intermediateFunction()</text>
<text text-anchor="middle" x="56.5" y="-338" font-family="Arial" font-size="10.00" fill="#ffffff">99.97%</text>
<text text-anchor="middle" x="56.5" y="-327" font-family="Arial" font-size="10.00" fill="#ffffff">(0.00%)</text>
<text text-anchor="middle" x="56.5" y="-316" font-family="Arial" font-size="10.00" fill="#ffffff">5×</text>
</g>
<!-- intermediateFunction()&#45;&gt;heavyCalculation() -->
<g id="edge5" class="edge">
<title>intermediateFunction()&#45;&gt;heavyCalculation()</title>
<path fill="none" stroke="#ff0000" stroke-width="4" d="M56.5,-308.7562C56.5,-299.5536 56.5,-289.3591 56.5,-279.6267"/>
<polygon fill="#ff0000" stroke="#ff0000" stroke-width="4" points="60.0001,-279.3163 56.5,-269.3163 53.0001,-279.3164 60.0001,-279.3163"/>
<text text-anchor="middle" x="73.5" y="-292" font-family="Arial" font-size="10.00" fill="#ff0000">99.97%</text>
<text text-anchor="middle" x="73.5" y="-281" font-family="Arial" font-size="10.00" fill="#ff0000">5000×</text>
</g>
<!-- mainFunction()&#45;&gt;intermediateFunction() -->
<g id="edge7" class="edge">
<title>mainFunction()&#45;&gt;intermediateFunction()</title>
<path fill="none" stroke="#ff0000" stroke-width="4" d="M56.5,-411.7562C56.5,-402.5536 56.5,-392.3591 56.5,-382.6267"/>
<polygon fill="#ff0000" stroke="#ff0000" stroke-width="4" points="60.0001,-382.3163 56.5,-372.3163 53.0001,-382.3164 60.0001,-382.3163"/>
<text text-anchor="middle" x="73.5" y="-395" font-family="Arial" font-size="10.00" fill="#ff0000">99.97%</text>
<text text-anchor="middle" x="73.5" y="-384" font-family="Arial" font-size="10.00" fill="#ff0000">5×</text>
</g>
</g>
</svg>
